<mxfile host="app.diagrams.net" modified="2024-04-23T12:07:47.382Z" agent="Mozilla/5.0 (Windows NT 10.0; Win64; x64) AppleWebKit/537.36 (KHTML, like Gecko) Chrome/124.0.0.0 Safari/537.36" etag="m_ezlU21i8htBt9PLHma" version="24.2.7" type="device">
  <diagram name="Σελίδα-1" id="iBf-Mmmy5pQXga0X2pru">
    <mxGraphModel dx="1612" dy="680" grid="1" gridSize="10" guides="1" tooltips="1" connect="1" arrows="1" fold="1" page="1" pageScale="1" pageWidth="827" pageHeight="1169" math="0" shadow="0">
      <root>
        <mxCell id="0" />
        <mxCell id="1" parent="0" />
        <mxCell id="zyJ_0umXrLE15Tcj7AAG-1" value="Actor" style="shape=umlActor;verticalLabelPosition=bottom;verticalAlign=top;html=1;outlineConnect=0;" parent="1" vertex="1">
          <mxGeometry x="10" y="130" width="30" height="60" as="geometry" />
        </mxCell>
        <mxCell id="zyJ_0umXrLE15Tcj7AAG-2" value="" style="endArrow=classic;html=1;rounded=0;entryX=-0.012;entryY=0.492;entryDx=0;entryDy=0;entryPerimeter=0;" parent="1" target="zyJ_0umXrLE15Tcj7AAG-4" edge="1">
          <mxGeometry width="50" height="50" relative="1" as="geometry">
            <mxPoint x="40" y="167" as="sourcePoint" />
            <mxPoint x="100" y="160" as="targetPoint" />
            <Array as="points" />
          </mxGeometry>
        </mxCell>
        <mxCell id="zyJ_0umXrLE15Tcj7AAG-3" value="Εμφάνισε" style="ellipse;shape=umlControl;whiteSpace=wrap;html=1;" parent="1" vertex="1">
          <mxGeometry x="260" y="130" width="70" height="75" as="geometry" />
        </mxCell>
        <mxCell id="zyJ_0umXrLE15Tcj7AAG-4" value="Καρτέλα καταστήματος" style="shape=umlBoundary;whiteSpace=wrap;html=1;" parent="1" vertex="1">
          <mxGeometry x="100" y="133.75" width="100" height="67.5" as="geometry" />
        </mxCell>
        <mxCell id="zyJ_0umXrLE15Tcj7AAG-5" value="Οθόνη χρήστη" style="text;align=center;fontStyle=1;verticalAlign=middle;spacingLeft=3;spacingRight=3;strokeColor=none;rotatable=0;points=[[0,0.5],[1,0.5]];portConstraint=eastwest;html=1;" parent="1" vertex="1">
          <mxGeometry x="30" y="104" width="80" height="26" as="geometry" />
        </mxCell>
        <mxCell id="zyJ_0umXrLE15Tcj7AAG-6" value="" style="endArrow=classic;html=1;rounded=0;exitX=1;exitY=0.513;exitDx=0;exitDy=0;exitPerimeter=0;entryX=0.014;entryY=0.5;entryDx=0;entryDy=0;entryPerimeter=0;" parent="1" source="zyJ_0umXrLE15Tcj7AAG-4" target="zyJ_0umXrLE15Tcj7AAG-3" edge="1">
          <mxGeometry width="50" height="50" relative="1" as="geometry">
            <mxPoint x="230" y="160" as="sourcePoint" />
            <mxPoint x="280" y="160" as="targetPoint" />
            <Array as="points" />
          </mxGeometry>
        </mxCell>
        <mxCell id="zyJ_0umXrLE15Tcj7AAG-9" value="" style="endArrow=classic;html=1;rounded=0;exitX=1;exitY=0.513;exitDx=0;exitDy=0;exitPerimeter=0;entryX=0.014;entryY=0.5;entryDx=0;entryDy=0;entryPerimeter=0;" parent="1" target="zyJ_0umXrLE15Tcj7AAG-10" edge="1">
          <mxGeometry width="50" height="50" relative="1" as="geometry">
            <mxPoint x="330" y="167" as="sourcePoint" />
            <mxPoint x="411" y="167" as="targetPoint" />
            <Array as="points" />
          </mxGeometry>
        </mxCell>
        <mxCell id="zyJ_0umXrLE15Tcj7AAG-10" value="Οθόνη επιλογής κατηγορίας" style="shape=umlBoundary;whiteSpace=wrap;html=1;" parent="1" vertex="1">
          <mxGeometry x="370" y="127.5" width="100" height="80" as="geometry" />
        </mxCell>
        <mxCell id="zyJ_0umXrLE15Tcj7AAG-11" value="" style="endArrow=classic;html=1;rounded=0;entryX=-0.012;entryY=0.492;entryDx=0;entryDy=0;entryPerimeter=0;" parent="1" target="zyJ_0umXrLE15Tcj7AAG-12" edge="1">
          <mxGeometry width="50" height="50" relative="1" as="geometry">
            <mxPoint x="470" y="167" as="sourcePoint" />
            <mxPoint x="529" y="167" as="targetPoint" />
            <Array as="points" />
          </mxGeometry>
        </mxCell>
        <mxCell id="zyJ_0umXrLE15Tcj7AAG-12" value="Επιλογή κατηγορίας" style="ellipse;shape=umlControl;whiteSpace=wrap;html=1;" parent="1" vertex="1">
          <mxGeometry x="500" y="127.5" width="70" height="80" as="geometry" />
        </mxCell>
        <mxCell id="zyJ_0umXrLE15Tcj7AAG-14" value="" style="endArrow=classic;html=1;rounded=0;exitX=0.5;exitY=1.006;exitDx=0;exitDy=0;exitPerimeter=0;" parent="1" source="zyJ_0umXrLE15Tcj7AAG-12" target="zyJ_0umXrLE15Tcj7AAG-15" edge="1">
          <mxGeometry width="50" height="50" relative="1" as="geometry">
            <mxPoint x="600" y="220" as="sourcePoint" />
            <mxPoint x="535" y="260" as="targetPoint" />
            <Array as="points" />
          </mxGeometry>
        </mxCell>
        <mxCell id="zyJ_0umXrLE15Tcj7AAG-15" value="Λήψη προϊόντων" style="ellipse;shape=umlControl;whiteSpace=wrap;html=1;" parent="1" vertex="1">
          <mxGeometry x="500" y="245" width="70" height="80" as="geometry" />
        </mxCell>
        <mxCell id="zyJ_0umXrLE15Tcj7AAG-16" value="Οθόνη λίστας προϊόντων" style="shape=umlBoundary;whiteSpace=wrap;html=1;" parent="1" vertex="1">
          <mxGeometry x="360" y="245" width="100" height="80" as="geometry" />
        </mxCell>
        <mxCell id="zyJ_0umXrLE15Tcj7AAG-17" value="" style="endArrow=classic;html=1;rounded=0;entryX=1.04;entryY=0.563;entryDx=0;entryDy=0;entryPerimeter=0;exitX=-0.029;exitY=0.563;exitDx=0;exitDy=0;exitPerimeter=0;" parent="1" source="zyJ_0umXrLE15Tcj7AAG-15" target="zyJ_0umXrLE15Tcj7AAG-16" edge="1">
          <mxGeometry width="50" height="50" relative="1" as="geometry">
            <mxPoint x="470" y="290" as="sourcePoint" />
            <mxPoint x="499" y="290" as="targetPoint" />
            <Array as="points" />
          </mxGeometry>
        </mxCell>
        <mxCell id="zyJ_0umXrLE15Tcj7AAG-18" value="" style="endArrow=classic;html=1;rounded=0;exitX=1;exitY=0.513;exitDx=0;exitDy=0;exitPerimeter=0;" parent="1" target="zyJ_0umXrLE15Tcj7AAG-19" edge="1">
          <mxGeometry width="50" height="50" relative="1" as="geometry">
            <mxPoint x="360" y="284.5" as="sourcePoint" />
            <mxPoint x="290" y="285" as="targetPoint" />
            <Array as="points" />
          </mxGeometry>
        </mxCell>
        <mxCell id="zyJ_0umXrLE15Tcj7AAG-19" value="Επιλογή προϊόντος" style="ellipse;shape=umlControl;whiteSpace=wrap;html=1;" parent="1" vertex="1">
          <mxGeometry x="255" y="245" width="70" height="80" as="geometry" />
        </mxCell>
        <mxCell id="zyJ_0umXrLE15Tcj7AAG-20" value="εμφάνισε" style="ellipse;shape=umlControl;whiteSpace=wrap;html=1;" parent="1" vertex="1">
          <mxGeometry x="150" y="245" width="70" height="80" as="geometry" />
        </mxCell>
        <mxCell id="zyJ_0umXrLE15Tcj7AAG-21" value="" style="endArrow=classic;html=1;rounded=0;" parent="1" edge="1">
          <mxGeometry width="50" height="50" relative="1" as="geometry">
            <mxPoint x="250" y="291" as="sourcePoint" />
            <mxPoint x="220" y="291" as="targetPoint" />
            <Array as="points" />
          </mxGeometry>
        </mxCell>
        <mxCell id="zyJ_0umXrLE15Tcj7AAG-22" value="" style="endArrow=classic;html=1;rounded=0;" parent="1" target="zyJ_0umXrLE15Tcj7AAG-23" edge="1">
          <mxGeometry width="50" height="50" relative="1" as="geometry">
            <mxPoint x="150" y="290" as="sourcePoint" />
            <mxPoint x="120" y="290" as="targetPoint" />
            <Array as="points" />
          </mxGeometry>
        </mxCell>
        <mxCell id="zyJ_0umXrLE15Tcj7AAG-23" value="Οθόνη προϊόντος" style="shape=umlBoundary;whiteSpace=wrap;html=1;" parent="1" vertex="1">
          <mxGeometry x="-10" y="250" width="100" height="80" as="geometry" />
        </mxCell>
        <mxCell id="zyJ_0umXrLE15Tcj7AAG-24" value="Προϊόν" style="ellipse;shape=umlEntity;whiteSpace=wrap;html=1;" parent="1" vertex="1">
          <mxGeometry x="250" y="355" width="80" height="80" as="geometry" />
        </mxCell>
        <mxCell id="zyJ_0umXrLE15Tcj7AAG-25" value="" style="endArrow=classic;html=1;rounded=0;exitX=0.5;exitY=0.988;exitDx=0;exitDy=0;exitPerimeter=0;entryX=0.5;entryY=0;entryDx=0;entryDy=0;" parent="1" source="zyJ_0umXrLE15Tcj7AAG-19" target="zyJ_0umXrLE15Tcj7AAG-24" edge="1">
          <mxGeometry width="50" height="50" relative="1" as="geometry">
            <mxPoint x="240" y="340" as="sourcePoint" />
            <mxPoint x="180" y="340" as="targetPoint" />
            <Array as="points" />
          </mxGeometry>
        </mxCell>
        <mxCell id="zyJ_0umXrLE15Tcj7AAG-26" value="" style="endArrow=classic;html=1;rounded=0;" parent="1" target="zyJ_0umXrLE15Tcj7AAG-27" edge="1">
          <mxGeometry width="50" height="50" relative="1" as="geometry">
            <mxPoint x="-10" y="290" as="sourcePoint" />
            <mxPoint x="-60" y="287" as="targetPoint" />
            <Array as="points" />
          </mxGeometry>
        </mxCell>
        <mxCell id="zyJ_0umXrLE15Tcj7AAG-27" value="επιλέγει ποσότητα" style="ellipse;shape=umlControl;whiteSpace=wrap;html=1;" parent="1" vertex="1">
          <mxGeometry x="-110" y="240" width="70" height="80" as="geometry" />
        </mxCell>
        <mxCell id="zyJ_0umXrLE15Tcj7AAG-28" value="" style="endArrow=classic;html=1;rounded=0;exitX=0.486;exitY=1.038;exitDx=0;exitDy=0;exitPerimeter=0;" parent="1" source="zyJ_0umXrLE15Tcj7AAG-27" edge="1">
          <mxGeometry width="50" height="50" relative="1" as="geometry">
            <mxPoint x="-100" y="400" as="sourcePoint" />
            <mxPoint x="-75" y="370" as="targetPoint" />
            <Array as="points" />
          </mxGeometry>
        </mxCell>
        <mxCell id="zyJ_0umXrLE15Tcj7AAG-30" value="" style="endArrow=classic;html=1;rounded=0;entryX=-0.012;entryY=0.492;entryDx=0;entryDy=0;entryPerimeter=0;" parent="1" edge="1">
          <mxGeometry width="50" height="50" relative="1" as="geometry">
            <mxPoint x="-49" y="399.5" as="sourcePoint" />
            <mxPoint x="10" y="399.5" as="targetPoint" />
            <Array as="points">
              <mxPoint x="-19" y="399.5" />
            </Array>
          </mxGeometry>
        </mxCell>
        <mxCell id="zyJ_0umXrLE15Tcj7AAG-31" value="Ναι" style="text;html=1;align=center;verticalAlign=middle;whiteSpace=wrap;rounded=0;" parent="1" vertex="1">
          <mxGeometry x="80" y="360" width="60" height="30" as="geometry" />
        </mxCell>
        <mxCell id="zyJ_0umXrLE15Tcj7AAG-33" value="" style="endArrow=classic;html=1;rounded=0;exitX=1.029;exitY=0.525;exitDx=0;exitDy=0;exitPerimeter=0;entryX=-0.03;entryY=0.5;entryDx=0;entryDy=0;entryPerimeter=0;" parent="1" target="zyJ_0umXrLE15Tcj7AAG-34" edge="1">
          <mxGeometry width="50" height="50" relative="1" as="geometry">
            <mxPoint x="82.02999999999997" y="397" as="sourcePoint" />
            <mxPoint x="130" y="395" as="targetPoint" />
            <Array as="points" />
          </mxGeometry>
        </mxCell>
        <mxCell id="zyJ_0umXrLE15Tcj7AAG-34" value="μήνυμα επιτυχίας" style="shape=umlBoundary;whiteSpace=wrap;html=1;" parent="1" vertex="1">
          <mxGeometry x="130" y="360" width="100" height="80" as="geometry" />
        </mxCell>
        <mxCell id="zyJ_0umXrLE15Tcj7AAG-35" value="" style="endArrow=classic;html=1;rounded=0;exitX=0.5;exitY=1.006;exitDx=0;exitDy=0;exitPerimeter=0;entryX=0.3;entryY=0.188;entryDx=0;entryDy=0;entryPerimeter=0;" parent="1" target="zyJ_0umXrLE15Tcj7AAG-36" edge="1">
          <mxGeometry width="50" height="50" relative="1" as="geometry">
            <mxPoint x="184.5" y="440" as="sourcePoint" />
            <mxPoint x="185" y="490" as="targetPoint" />
            <Array as="points" />
          </mxGeometry>
        </mxCell>
        <mxCell id="zyJ_0umXrLE15Tcj7AAG-36" value="Εμφάνισε" style="ellipse;shape=umlControl;whiteSpace=wrap;html=1;" parent="1" vertex="1">
          <mxGeometry x="230" y="480" width="70" height="80" as="geometry" />
        </mxCell>
        <mxCell id="zyJ_0umXrLE15Tcj7AAG-37" value="" style="endArrow=classic;html=1;rounded=0;exitX=1.043;exitY=0.513;exitDx=0;exitDy=0;exitPerimeter=0;" parent="1" source="zyJ_0umXrLE15Tcj7AAG-36" edge="1">
          <mxGeometry width="50" height="50" relative="1" as="geometry">
            <mxPoint x="365" y="520" as="sourcePoint" />
            <mxPoint x="325" y="520" as="targetPoint" />
            <Array as="points" />
          </mxGeometry>
        </mxCell>
        <mxCell id="zyJ_0umXrLE15Tcj7AAG-38" value="Οθόνη καλαθιού αγοράς" style="shape=umlBoundary;whiteSpace=wrap;html=1;" parent="1" vertex="1">
          <mxGeometry x="325" y="485" width="95" height="70" as="geometry" />
        </mxCell>
        <mxCell id="zyJ_0umXrLE15Tcj7AAG-39" value="" style="endArrow=classic;html=1;rounded=0;exitX=1.056;exitY=0.5;exitDx=0;exitDy=0;exitPerimeter=0;" parent="1" source="zyJ_0umXrLE15Tcj7AAG-38" edge="1">
          <mxGeometry width="50" height="50" relative="1" as="geometry">
            <mxPoint x="480" y="500" as="sourcePoint" />
            <mxPoint x="450" y="520" as="targetPoint" />
            <Array as="points" />
          </mxGeometry>
        </mxCell>
        <mxCell id="zyJ_0umXrLE15Tcj7AAG-40" value="Επιλογή προϊόντος" style="ellipse;shape=umlControl;whiteSpace=wrap;html=1;" parent="1" vertex="1">
          <mxGeometry x="450" y="480" width="70" height="80" as="geometry" />
        </mxCell>
        <mxCell id="zyJ_0umXrLE15Tcj7AAG-41" value="" style="endArrow=classic;html=1;rounded=0;exitX=1;exitY=0.5;exitDx=0;exitDy=0;exitPerimeter=0;entryX=0;entryY=0.5;entryDx=0;entryDy=0;" parent="1" source="zyJ_0umXrLE15Tcj7AAG-40" target="zyJ_0umXrLE15Tcj7AAG-42" edge="1">
          <mxGeometry width="50" height="50" relative="1" as="geometry">
            <mxPoint x="-90" y="570" as="sourcePoint" />
            <mxPoint x="-80" y="630" as="targetPoint" />
            <Array as="points" />
          </mxGeometry>
        </mxCell>
        <mxCell id="zyJ_0umXrLE15Tcj7AAG-42" value="Προϊόν" style="ellipse;shape=umlEntity;whiteSpace=wrap;html=1;" parent="1" vertex="1">
          <mxGeometry x="570" y="485" width="70" height="70" as="geometry" />
        </mxCell>
        <mxCell id="zyJ_0umXrLE15Tcj7AAG-43" value="" style="endArrow=classic;html=1;rounded=0;exitX=0.5;exitY=0.988;exitDx=0;exitDy=0;exitPerimeter=0;entryX=0.5;entryY=0;entryDx=0;entryDy=0;" parent="1" target="zyJ_0umXrLE15Tcj7AAG-44" edge="1">
          <mxGeometry width="50" height="50" relative="1" as="geometry">
            <mxPoint x="484.5" y="560" as="sourcePoint" />
            <mxPoint x="484.5" y="591" as="targetPoint" />
            <Array as="points" />
          </mxGeometry>
        </mxCell>
        <mxCell id="zyJ_0umXrLE15Tcj7AAG-44" value="Εμφάνισε" style="ellipse;shape=umlControl;whiteSpace=wrap;html=1;" parent="1" vertex="1">
          <mxGeometry x="600" y="585" width="70" height="80" as="geometry" />
        </mxCell>
        <mxCell id="zyJ_0umXrLE15Tcj7AAG-45" value="" style="endArrow=classic;html=1;rounded=0;exitX=-0.029;exitY=0.513;exitDx=0;exitDy=0;exitPerimeter=0;" parent="1" source="zyJ_0umXrLE15Tcj7AAG-44" edge="1">
          <mxGeometry width="50" height="50" relative="1" as="geometry">
            <mxPoint x="630" y="690" as="sourcePoint" />
            <mxPoint x="540" y="625" as="targetPoint" />
            <Array as="points" />
          </mxGeometry>
        </mxCell>
        <mxCell id="zyJ_0umXrLE15Tcj7AAG-46" value="Φόρμα αποστολής" style="shape=umlBoundary;whiteSpace=wrap;html=1;" parent="1" vertex="1">
          <mxGeometry x="440" y="585" width="100" height="80" as="geometry" />
        </mxCell>
        <mxCell id="zyJ_0umXrLE15Tcj7AAG-47" value="Επόμενο" style="text;html=1;align=center;verticalAlign=middle;whiteSpace=wrap;rounded=0;" parent="1" vertex="1">
          <mxGeometry x="540" y="585" width="60" height="30" as="geometry" />
        </mxCell>
        <mxCell id="zyJ_0umXrLE15Tcj7AAG-48" value="Αγορά" style="text;html=1;align=center;verticalAlign=middle;whiteSpace=wrap;rounded=0;" parent="1" vertex="1">
          <mxGeometry x="370" y="635" width="60" height="30" as="geometry" />
        </mxCell>
        <mxCell id="zyJ_0umXrLE15Tcj7AAG-49" value="" style="endArrow=classic;html=1;rounded=0;exitX=-0.029;exitY=0.513;exitDx=0;exitDy=0;exitPerimeter=0;" parent="1" target="zyJ_0umXrLE15Tcj7AAG-50" edge="1">
          <mxGeometry width="50" height="50" relative="1" as="geometry">
            <mxPoint x="440" y="625.5" as="sourcePoint" />
            <mxPoint x="382" y="624.5" as="targetPoint" />
            <Array as="points" />
          </mxGeometry>
        </mxCell>
        <mxCell id="zyJ_0umXrLE15Tcj7AAG-50" value="Υπάρχει το απαιτούμενο χρηματικό ποσό;" style="ellipse;shape=umlControl;whiteSpace=wrap;html=1;" parent="1" vertex="1">
          <mxGeometry x="290" y="590" width="90" height="90" as="geometry" />
        </mxCell>
        <mxCell id="zyJ_0umXrLE15Tcj7AAG-51" value="" style="endArrow=classic;html=1;rounded=0;entryX=0.6;entryY=0.113;entryDx=0;entryDy=0;entryPerimeter=0;exitX=0.743;exitY=0.988;exitDx=0;exitDy=0;exitPerimeter=0;" parent="1" target="zyJ_0umXrLE15Tcj7AAG-53" edge="1">
          <mxGeometry width="50" height="50" relative="1" as="geometry">
            <mxPoint x="342.8500000000002" y="665" as="sourcePoint" />
            <mxPoint x="399.99999999999983" y="770.3199999999999" as="targetPoint" />
            <Array as="points" />
          </mxGeometry>
        </mxCell>
        <mxCell id="zyJ_0umXrLE15Tcj7AAG-52" value="Ναι" style="text;html=1;align=center;verticalAlign=middle;whiteSpace=wrap;rounded=0;" parent="1" vertex="1">
          <mxGeometry x="295" y="700" width="60" height="30" as="geometry" />
        </mxCell>
        <mxCell id="zyJ_0umXrLE15Tcj7AAG-53" value="Αφαίρεση ποσού" style="ellipse;shape=umlControl;whiteSpace=wrap;html=1;" parent="1" vertex="1">
          <mxGeometry x="305" y="760" width="70" height="80" as="geometry" />
        </mxCell>
        <mxCell id="zyJ_0umXrLE15Tcj7AAG-54" value="" style="endArrow=classic;html=1;rounded=0;exitX=0.571;exitY=1;exitDx=0;exitDy=0;exitPerimeter=0;" parent="1" source="zyJ_0umXrLE15Tcj7AAG-53" edge="1">
          <mxGeometry width="50" height="50" relative="1" as="geometry">
            <mxPoint x="290" y="850" as="sourcePoint" />
            <mxPoint x="346.77602454482894" y="860.0394477413502" as="targetPoint" />
            <Array as="points" />
          </mxGeometry>
        </mxCell>
        <mxCell id="zyJ_0umXrLE15Tcj7AAG-55" value="User&#39;s Wallet" style="ellipse;shape=umlEntity;whiteSpace=wrap;html=1;" parent="1" vertex="1">
          <mxGeometry x="310" y="860" width="80" height="80" as="geometry" />
        </mxCell>
        <mxCell id="zyJ_0umXrLE15Tcj7AAG-56" value="" style="endArrow=classic;html=1;rounded=0;exitX=1;exitY=0.513;exitDx=0;exitDy=0;exitPerimeter=0;" parent="1" source="zyJ_0umXrLE15Tcj7AAG-53" target="zyJ_0umXrLE15Tcj7AAG-57" edge="1">
          <mxGeometry width="50" height="50" relative="1" as="geometry">
            <mxPoint x="410" y="890" as="sourcePoint" />
            <mxPoint x="430" y="771" as="targetPoint" />
            <Array as="points" />
          </mxGeometry>
        </mxCell>
        <mxCell id="zyJ_0umXrLE15Tcj7AAG-57" value="Αφαίρεση προϊόντος από καλάθι αγοράς" style="ellipse;shape=umlControl;whiteSpace=wrap;html=1;" parent="1" vertex="1">
          <mxGeometry x="402.5" y="770" width="70" height="80" as="geometry" />
        </mxCell>
        <mxCell id="zyJ_0umXrLE15Tcj7AAG-58" value="" style="endArrow=classic;html=1;rounded=0;exitX=0.557;exitY=1.013;exitDx=0;exitDy=0;exitPerimeter=0;" parent="1" source="zyJ_0umXrLE15Tcj7AAG-57" edge="1">
          <mxGeometry width="50" height="50" relative="1" as="geometry">
            <mxPoint x="440" y="880" as="sourcePoint" />
            <mxPoint x="450" y="870" as="targetPoint" />
            <Array as="points" />
          </mxGeometry>
        </mxCell>
        <mxCell id="zyJ_0umXrLE15Tcj7AAG-59" value="Product" style="ellipse;shape=umlEntity;whiteSpace=wrap;html=1;" parent="1" vertex="1">
          <mxGeometry x="410" y="870" width="80" height="80" as="geometry" />
        </mxCell>
        <mxCell id="zyJ_0umXrLE15Tcj7AAG-60" value="" style="endArrow=classic;html=1;rounded=0;exitX=1.057;exitY=0.513;exitDx=0;exitDy=0;exitPerimeter=0;" parent="1" source="zyJ_0umXrLE15Tcj7AAG-57" target="zyJ_0umXrLE15Tcj7AAG-62" edge="1">
          <mxGeometry width="50" height="50" relative="1" as="geometry">
            <mxPoint x="480" y="769.5" as="sourcePoint" />
            <mxPoint x="510" y="769.5" as="targetPoint" />
            <Array as="points" />
          </mxGeometry>
        </mxCell>
        <mxCell id="zyJ_0umXrLE15Tcj7AAG-61" value="" style="edgeStyle=orthogonalEdgeStyle;rounded=0;orthogonalLoop=1;jettySize=auto;html=1;" parent="1" source="zyJ_0umXrLE15Tcj7AAG-62" target="zyJ_0umXrLE15Tcj7AAG-63" edge="1">
          <mxGeometry relative="1" as="geometry">
            <Array as="points">
              <mxPoint x="545" y="870" />
              <mxPoint x="545" y="870" />
            </Array>
          </mxGeometry>
        </mxCell>
        <mxCell id="zyJ_0umXrLE15Tcj7AAG-62" value="Προσθήκη ποσού" style="ellipse;shape=umlControl;whiteSpace=wrap;html=1;" parent="1" vertex="1">
          <mxGeometry x="510" y="770" width="70" height="80" as="geometry" />
        </mxCell>
        <mxCell id="zyJ_0umXrLE15Tcj7AAG-63" value="Admin&#39;s Wallet" style="ellipse;shape=umlEntity;whiteSpace=wrap;html=1;" parent="1" vertex="1">
          <mxGeometry x="510" y="870" width="80" height="80" as="geometry" />
        </mxCell>
        <mxCell id="zyJ_0umXrLE15Tcj7AAG-64" value="" style="endArrow=classic;html=1;rounded=0;exitX=1;exitY=0.513;exitDx=0;exitDy=0;exitPerimeter=0;" parent="1" edge="1">
          <mxGeometry width="50" height="50" relative="1" as="geometry">
            <mxPoint x="580" y="799.5" as="sourcePoint" />
            <mxPoint x="610" y="800" as="targetPoint" />
            <Array as="points" />
          </mxGeometry>
        </mxCell>
        <mxCell id="zyJ_0umXrLE15Tcj7AAG-65" value="Έγινε η αποθήκευση παραγγελίας;" style="ellipse;shape=umlControl;whiteSpace=wrap;html=1;" parent="1" vertex="1">
          <mxGeometry x="607.5" y="740" width="82.5" height="90" as="geometry" />
        </mxCell>
        <mxCell id="zyJ_0umXrLE15Tcj7AAG-66" value="" style="endArrow=classic;html=1;rounded=0;exitX=0.543;exitY=1.013;exitDx=0;exitDy=0;exitPerimeter=0;" parent="1" source="zyJ_0umXrLE15Tcj7AAG-65" edge="1">
          <mxGeometry width="50" height="50" relative="1" as="geometry">
            <mxPoint x="650" y="820" as="sourcePoint" />
            <mxPoint x="650" y="860" as="targetPoint" />
            <Array as="points" />
          </mxGeometry>
        </mxCell>
        <mxCell id="zyJ_0umXrLE15Tcj7AAG-67" value="Order" style="ellipse;shape=umlEntity;whiteSpace=wrap;html=1;" parent="1" vertex="1">
          <mxGeometry x="620" y="860" width="70" height="60" as="geometry" />
        </mxCell>
        <mxCell id="zyJ_0umXrLE15Tcj7AAG-68" value="Δίνεται κωδικός" style="ellipse;shape=umlControl;whiteSpace=wrap;html=1;" parent="1" vertex="1">
          <mxGeometry x="734" y="735" width="70" height="80" as="geometry" />
        </mxCell>
        <mxCell id="zyJ_0umXrLE15Tcj7AAG-69" value="" style="endArrow=classic;html=1;rounded=0;exitX=0.229;exitY=0.963;exitDx=0;exitDy=0;exitPerimeter=0;entryX=0.713;entryY=-0.012;entryDx=0;entryDy=0;entryPerimeter=0;" parent="1" source="zyJ_0umXrLE15Tcj7AAG-68" target="zyJ_0umXrLE15Tcj7AAG-67" edge="1">
          <mxGeometry width="50" height="50" relative="1" as="geometry">
            <mxPoint x="730" y="830" as="sourcePoint" />
            <mxPoint x="742.0555829878581" y="860.0024689072161" as="targetPoint" />
            <Array as="points" />
          </mxGeometry>
        </mxCell>
        <mxCell id="zyJ_0umXrLE15Tcj7AAG-70" value="Ναι" style="text;html=1;align=center;verticalAlign=middle;whiteSpace=wrap;rounded=0;" parent="1" vertex="1">
          <mxGeometry x="684" y="740" width="60" height="30" as="geometry" />
        </mxCell>
        <mxCell id="zyJ_0umXrLE15Tcj7AAG-71" value="" style="endArrow=classic;html=1;rounded=0;exitX=0.514;exitY=1.038;exitDx=0;exitDy=0;exitPerimeter=0;" parent="1" source="zyJ_0umXrLE15Tcj7AAG-68" target="zyJ_0umXrLE15Tcj7AAG-72" edge="1">
          <mxGeometry width="50" height="50" relative="1" as="geometry">
            <mxPoint x="740" y="850" as="sourcePoint" />
            <mxPoint x="740" y="860" as="targetPoint" />
            <Array as="points" />
          </mxGeometry>
        </mxCell>
        <mxCell id="zyJ_0umXrLE15Tcj7AAG-72" value="Αφαίρεση ποσότητας προϊόντος από βάση" style="ellipse;shape=umlControl;whiteSpace=wrap;html=1;" parent="1" vertex="1">
          <mxGeometry x="707.5" y="860" width="72.5" height="90" as="geometry" />
        </mxCell>
        <mxCell id="zyJ_0umXrLE15Tcj7AAG-73" value="" style="endArrow=classic;html=1;rounded=0;exitX=0.95;exitY=0.8;exitDx=0;exitDy=0;exitPerimeter=0;" parent="1" source="zyJ_0umXrLE15Tcj7AAG-72" target="zyJ_0umXrLE15Tcj7AAG-74" edge="1">
          <mxGeometry width="50" height="50" relative="1" as="geometry">
            <mxPoint x="740" y="1030" as="sourcePoint" />
            <mxPoint x="774" y="1020" as="targetPoint" />
            <Array as="points" />
          </mxGeometry>
        </mxCell>
        <mxCell id="zyJ_0umXrLE15Tcj7AAG-74" value="Εμφάνισε" style="ellipse;shape=umlControl;whiteSpace=wrap;html=1;" parent="1" vertex="1">
          <mxGeometry x="739" y="980" width="70" height="80" as="geometry" />
        </mxCell>
        <mxCell id="zyJ_0umXrLE15Tcj7AAG-75" value="" style="endArrow=classic;html=1;rounded=0;exitX=-0.043;exitY=0.625;exitDx=0;exitDy=0;exitPerimeter=0;" parent="1" source="zyJ_0umXrLE15Tcj7AAG-74" edge="1">
          <mxGeometry width="50" height="50" relative="1" as="geometry">
            <mxPoint x="680" y="1040" as="sourcePoint" />
            <mxPoint x="710" y="1030" as="targetPoint" />
            <Array as="points" />
          </mxGeometry>
        </mxCell>
        <mxCell id="zyJ_0umXrLE15Tcj7AAG-76" value="Μήνυμα επιτυχίας αγοράς" style="shape=umlBoundary;whiteSpace=wrap;html=1;" parent="1" vertex="1">
          <mxGeometry x="610" y="990" width="100" height="80" as="geometry" />
        </mxCell>
        <mxCell id="zyJ_0umXrLE15Tcj7AAG-77" value="" style="endArrow=classic;html=1;rounded=0;exitX=-0.043;exitY=0.625;exitDx=0;exitDy=0;exitPerimeter=0;" parent="1" target="zyJ_0umXrLE15Tcj7AAG-78" edge="1">
          <mxGeometry width="50" height="50" relative="1" as="geometry">
            <mxPoint x="610" y="1029.5" as="sourcePoint" />
            <mxPoint x="584" y="1029.5" as="targetPoint" />
            <Array as="points" />
          </mxGeometry>
        </mxCell>
        <mxCell id="zyJ_0umXrLE15Tcj7AAG-78" value="Στέλνει απόδειξη αγοράς" style="ellipse;shape=umlControl;whiteSpace=wrap;html=1;" parent="1" vertex="1">
          <mxGeometry x="510" y="990" width="70" height="80" as="geometry" />
        </mxCell>
        <mxCell id="zyJ_0umXrLE15Tcj7AAG-79" value="Order" style="text;html=1;align=center;verticalAlign=middle;whiteSpace=wrap;rounded=0;" parent="1" vertex="1">
          <mxGeometry x="400" y="1050" width="60" height="30" as="geometry" />
        </mxCell>
        <mxCell id="zyJ_0umXrLE15Tcj7AAG-80" value="" style="endArrow=classic;html=1;rounded=0;exitX=-0.043;exitY=0.625;exitDx=0;exitDy=0;exitPerimeter=0;" parent="1" target="zyJ_0umXrLE15Tcj7AAG-81" edge="1">
          <mxGeometry width="50" height="50" relative="1" as="geometry">
            <mxPoint x="510" y="1029.5" as="sourcePoint" />
            <mxPoint x="480" y="1030" as="targetPoint" />
            <Array as="points" />
          </mxGeometry>
        </mxCell>
        <mxCell id="zyJ_0umXrLE15Tcj7AAG-81" value="&amp;nbsp;Απόδειξη αγοράς" style="shape=umlBoundary;whiteSpace=wrap;html=1;" parent="1" vertex="1">
          <mxGeometry x="370" y="990" width="100" height="80" as="geometry" />
        </mxCell>
        <mxCell id="zyJ_0umXrLE15Tcj7AAG-82" value="" style="endArrow=classic;html=1;rounded=0;exitX=0.162;exitY=0.929;exitDx=0;exitDy=0;exitPerimeter=0;strokeColor=#FF0080;" parent="1" source="gBUgieI7DgrWP3UvU2Cn-5" edge="1">
          <mxGeometry width="50" height="50" relative="1" as="geometry">
            <mxPoint x="-46.01999999999998" y="442" as="sourcePoint" />
            <mxPoint x="-56" y="500" as="targetPoint" />
            <Array as="points" />
          </mxGeometry>
        </mxCell>
        <mxCell id="zyJ_0umXrLE15Tcj7AAG-83" value="Όχι" style="text;html=1;align=center;verticalAlign=middle;whiteSpace=wrap;rounded=0;" parent="1" vertex="1">
          <mxGeometry y="460" width="60" height="30" as="geometry" />
        </mxCell>
        <mxCell id="zyJ_0umXrLE15Tcj7AAG-84" value="Εμφανίζεται" style="ellipse;shape=umlControl;whiteSpace=wrap;html=1;strokeColor=#FF0080;" parent="1" vertex="1">
          <mxGeometry x="-90" y="490" width="70" height="80" as="geometry" />
        </mxCell>
        <mxCell id="zyJ_0umXrLE15Tcj7AAG-85" value="" style="endArrow=classic;html=1;rounded=0;exitX=0.543;exitY=0.975;exitDx=0;exitDy=0;exitPerimeter=0;strokeColor=#FF0080;" parent="1" source="zyJ_0umXrLE15Tcj7AAG-84" target="zyJ_0umXrLE15Tcj7AAG-86" edge="1">
          <mxGeometry width="50" height="50" relative="1" as="geometry">
            <mxPoint x="-55.5" y="567" as="sourcePoint" />
            <mxPoint x="-52" y="610" as="targetPoint" />
            <Array as="points" />
          </mxGeometry>
        </mxCell>
        <mxCell id="zyJ_0umXrLE15Tcj7AAG-86" value="Μήνυμα αποτυχίας αγοράς" style="shape=umlBoundary;whiteSpace=wrap;html=1;strokeColor=#FF0080;" parent="1" vertex="1">
          <mxGeometry x="-100" y="600" width="100" height="80" as="geometry" />
        </mxCell>
        <mxCell id="zyJ_0umXrLE15Tcj7AAG-87" value="" style="endArrow=classic;html=1;rounded=0;exitX=0.271;exitY=0.963;exitDx=0;exitDy=0;exitPerimeter=0;strokeColor=#FF0080;" parent="1" source="zyJ_0umXrLE15Tcj7AAG-50" edge="1">
          <mxGeometry width="50" height="50" relative="1" as="geometry">
            <mxPoint x="180" y="730" as="sourcePoint" />
            <mxPoint x="240" y="680" as="targetPoint" />
            <Array as="points" />
          </mxGeometry>
        </mxCell>
        <mxCell id="zyJ_0umXrLE15Tcj7AAG-88" value="&lt;blockquote style=&quot;margin: 0 0 0 40px; border: none; padding: 0px;&quot;&gt;Όχι&lt;/blockquote&gt;" style="text;html=1;align=center;verticalAlign=middle;whiteSpace=wrap;rounded=0;" parent="1" vertex="1">
          <mxGeometry x="250" y="670" width="60" height="30" as="geometry" />
        </mxCell>
        <mxCell id="zyJ_0umXrLE15Tcj7AAG-89" value="Εμφανίζεται" style="ellipse;shape=umlControl;whiteSpace=wrap;html=1;strokeColor=#FF0080;" parent="1" vertex="1">
          <mxGeometry x="170" y="645" width="70" height="80" as="geometry" />
        </mxCell>
        <mxCell id="zyJ_0umXrLE15Tcj7AAG-90" value="" style="endArrow=classic;html=1;rounded=0;exitX=0.543;exitY=0.975;exitDx=0;exitDy=0;exitPerimeter=0;strokeColor=#FF0080;" parent="1" edge="1">
          <mxGeometry width="50" height="50" relative="1" as="geometry">
            <mxPoint x="204.5" y="730" as="sourcePoint" />
            <mxPoint x="205.5" y="762" as="targetPoint" />
            <Array as="points" />
          </mxGeometry>
        </mxCell>
        <mxCell id="zyJ_0umXrLE15Tcj7AAG-91" value="Μήνυμα αποτυχίας αγοράς" style="shape=umlBoundary;whiteSpace=wrap;html=1;strokeColor=#FF0080;" parent="1" vertex="1">
          <mxGeometry x="150" y="765" width="100" height="80" as="geometry" />
        </mxCell>
        <mxCell id="zyJ_0umXrLE15Tcj7AAG-92" value="" style="endArrow=classic;html=1;rounded=0;exitX=0.186;exitY=0.188;exitDx=0;exitDy=0;exitPerimeter=0;strokeColor=#FF0080;" parent="1" source="zyJ_0umXrLE15Tcj7AAG-65" edge="1">
          <mxGeometry width="50" height="50" relative="1" as="geometry">
            <mxPoint x="490" y="720" as="sourcePoint" />
            <mxPoint x="60" y="740" as="targetPoint" />
            <Array as="points" />
          </mxGeometry>
        </mxCell>
        <mxCell id="zyJ_0umXrLE15Tcj7AAG-93" value="" style="endArrow=classic;html=1;rounded=0;exitX=1;exitY=0.513;exitDx=0;exitDy=0;exitPerimeter=0;" parent="1" edge="1">
          <mxGeometry width="50" height="50" relative="1" as="geometry">
            <mxPoint x="677.5" y="779.5" as="sourcePoint" />
            <mxPoint x="730" y="780" as="targetPoint" />
            <Array as="points" />
          </mxGeometry>
        </mxCell>
        <mxCell id="zyJ_0umXrLE15Tcj7AAG-94" value="&lt;blockquote style=&quot;margin: 0 0 0 40px; border: none; padding: 0px;&quot;&gt;Όχι&lt;/blockquote&gt;" style="text;html=1;align=center;verticalAlign=middle;whiteSpace=wrap;rounded=0;" parent="1" vertex="1">
          <mxGeometry x="70" y="710" width="60" height="30" as="geometry" />
        </mxCell>
        <mxCell id="zyJ_0umXrLE15Tcj7AAG-95" value="Προσθήκη ποσού αγοράς στο χρήστη" style="ellipse;shape=umlControl;whiteSpace=wrap;html=1;strokeColor=#FF0080;" parent="1" vertex="1">
          <mxGeometry x="-10" y="700" width="70" height="80" as="geometry" />
        </mxCell>
        <mxCell id="zyJ_0umXrLE15Tcj7AAG-96" value="" style="endArrow=classic;html=1;rounded=0;exitX=0.771;exitY=0.175;exitDx=0;exitDy=0;exitPerimeter=0;strokeColor=#FF0080;" parent="1" source="zyJ_0umXrLE15Tcj7AAG-95" target="zyJ_0umXrLE15Tcj7AAG-97" edge="1">
          <mxGeometry width="50" height="50" relative="1" as="geometry">
            <mxPoint x="40" y="670" as="sourcePoint" />
            <mxPoint x="50" y="680" as="targetPoint" />
            <Array as="points" />
          </mxGeometry>
        </mxCell>
        <mxCell id="zyJ_0umXrLE15Tcj7AAG-97" value="User&#39;s Wallet" style="ellipse;shape=umlEntity;whiteSpace=wrap;html=1;strokeColor=#FF0080;" parent="1" vertex="1">
          <mxGeometry x="20" y="600" width="80" height="80" as="geometry" />
        </mxCell>
        <mxCell id="zyJ_0umXrLE15Tcj7AAG-98" value="" style="endArrow=classic;html=1;rounded=0;exitX=-0.043;exitY=0.625;exitDx=0;exitDy=0;exitPerimeter=0;strokeColor=#FF0080;" parent="1" target="zyJ_0umXrLE15Tcj7AAG-99" edge="1">
          <mxGeometry width="50" height="50" relative="1" as="geometry">
            <mxPoint x="-10" y="749.5" as="sourcePoint" />
            <mxPoint x="-50" y="750" as="targetPoint" />
            <Array as="points" />
          </mxGeometry>
        </mxCell>
        <mxCell id="zyJ_0umXrLE15Tcj7AAG-99" value="Αφαίρεση ποσού αγοράς στον Admin" style="ellipse;shape=umlControl;whiteSpace=wrap;html=1;strokeColor=#FF0080;" parent="1" vertex="1">
          <mxGeometry x="-100" y="710" width="70" height="80" as="geometry" />
        </mxCell>
        <mxCell id="zyJ_0umXrLE15Tcj7AAG-100" value="" style="endArrow=classic;html=1;rounded=0;exitX=-0.014;exitY=0.75;exitDx=0;exitDy=0;exitPerimeter=0;strokeColor=#FF0080;" parent="1" source="zyJ_0umXrLE15Tcj7AAG-99" target="zyJ_0umXrLE15Tcj7AAG-101" edge="1">
          <mxGeometry width="50" height="50" relative="1" as="geometry">
            <mxPoint x="-70" y="880" as="sourcePoint" />
            <mxPoint x="-110" y="840" as="targetPoint" />
            <Array as="points" />
          </mxGeometry>
        </mxCell>
        <mxCell id="zyJ_0umXrLE15Tcj7AAG-101" value="Admin&#39;s Wallet" style="ellipse;shape=umlEntity;whiteSpace=wrap;html=1;strokeColor=#FF0080;" parent="1" vertex="1">
          <mxGeometry x="-140" y="850" width="80" height="80" as="geometry" />
        </mxCell>
        <mxCell id="zyJ_0umXrLE15Tcj7AAG-102" value="" style="endArrow=classic;html=1;rounded=0;exitX=1;exitY=0.5;exitDx=0;exitDy=0;strokeColor=#FF0080;" parent="1" source="zyJ_0umXrLE15Tcj7AAG-101" edge="1">
          <mxGeometry width="50" height="50" relative="1" as="geometry">
            <mxPoint x="-50" y="890" as="sourcePoint" />
            <mxPoint x="-30" y="890" as="targetPoint" />
            <Array as="points" />
          </mxGeometry>
        </mxCell>
        <mxCell id="zyJ_0umXrLE15Tcj7AAG-103" value="Εμφάνισε" style="ellipse;shape=umlControl;whiteSpace=wrap;html=1;strokeColor=#FF0080;" parent="1" vertex="1">
          <mxGeometry x="-30" y="850" width="70" height="80" as="geometry" />
        </mxCell>
        <mxCell id="zyJ_0umXrLE15Tcj7AAG-104" value="" style="endArrow=classic;html=1;rounded=0;exitX=1;exitY=0.5;exitDx=0;exitDy=0;strokeColor=#FF0080;" parent="1" edge="1">
          <mxGeometry width="50" height="50" relative="1" as="geometry">
            <mxPoint x="50" y="900" as="sourcePoint" />
            <mxPoint x="80" y="900" as="targetPoint" />
            <Array as="points" />
          </mxGeometry>
        </mxCell>
        <mxCell id="zyJ_0umXrLE15Tcj7AAG-105" value="Μήνυμα αποτυχημένης υποβολής" style="shape=umlBoundary;whiteSpace=wrap;html=1;strokeColor=#FF0080;" parent="1" vertex="1">
          <mxGeometry x="80" y="860" width="100" height="80" as="geometry" />
        </mxCell>
        <mxCell id="zyJ_0umXrLE15Tcj7AAG-106" value="" style="endArrow=classic;html=1;rounded=0;exitX=0.29;exitY=0.125;exitDx=0;exitDy=0;exitPerimeter=0;entryX=-0.043;entryY=0.693;entryDx=0;entryDy=0;entryPerimeter=0;strokeColor=#FF0080;" parent="1" source="zyJ_0umXrLE15Tcj7AAG-91" target="zyJ_0umXrLE15Tcj7AAG-3" edge="1">
          <mxGeometry width="50" height="50" relative="1" as="geometry">
            <mxPoint x="100" y="790" as="sourcePoint" />
            <mxPoint x="130" y="210" as="targetPoint" />
            <Array as="points">
              <mxPoint x="120" y="240" />
            </Array>
          </mxGeometry>
        </mxCell>
        <mxCell id="zyJ_0umXrLE15Tcj7AAG-107" value="" style="endArrow=classic;html=1;rounded=0;strokeColor=#FF0080;" parent="1" source="zyJ_0umXrLE15Tcj7AAG-105" edge="1">
          <mxGeometry width="50" height="50" relative="1" as="geometry">
            <mxPoint x="100" y="830" as="sourcePoint" />
            <mxPoint x="160" y="690" as="targetPoint" />
            <Array as="points" />
          </mxGeometry>
        </mxCell>
        <mxCell id="zyJ_0umXrLE15Tcj7AAG-108" value="" style="endArrow=classic;html=1;rounded=0;exitX=0.69;exitY=-0.025;exitDx=0;exitDy=0;exitPerimeter=0;strokeColor=#FF0080;" parent="1" source="zyJ_0umXrLE15Tcj7AAG-86" edge="1">
          <mxGeometry width="50" height="50" relative="1" as="geometry">
            <mxPoint x="-10" y="570" as="sourcePoint" />
            <mxPoint x="140" y="520" as="targetPoint" />
            <Array as="points" />
          </mxGeometry>
        </mxCell>
        <mxCell id="gBUgieI7DgrWP3UvU2Cn-2" value="" style="endArrow=none;html=1;rounded=0;" edge="1" parent="1" target="gBUgieI7DgrWP3UvU2Cn-3">
          <mxGeometry width="50" height="50" relative="1" as="geometry">
            <mxPoint x="540" y="133.75" as="sourcePoint" />
            <mxPoint x="540" y="90" as="targetPoint" />
          </mxGeometry>
        </mxCell>
        <mxCell id="gBUgieI7DgrWP3UvU2Cn-3" value="Κατηγορία" style="ellipse;shape=umlEntity;whiteSpace=wrap;html=1;" vertex="1" parent="1">
          <mxGeometry x="495" y="20" width="80" height="80" as="geometry" />
        </mxCell>
        <mxCell id="gBUgieI7DgrWP3UvU2Cn-4" value="επιλογή προσθήκης στο καλάθι" style="ellipse;shape=umlControl;whiteSpace=wrap;html=1;" vertex="1" parent="1">
          <mxGeometry x="-110" y="360" width="70" height="80" as="geometry" />
        </mxCell>
        <mxCell id="gBUgieI7DgrWP3UvU2Cn-5" value="Υπάρχει η ζητούμενη ποσότητα;" style="ellipse;shape=umlControl;whiteSpace=wrap;html=1;" vertex="1" parent="1">
          <mxGeometry x="10" y="360" width="70" height="80" as="geometry" />
        </mxCell>
      </root>
    </mxGraphModel>
  </diagram>
</mxfile>
